<?xml version="1.0" encoding="utf-8"?>
<!-- Generator: Adobe Illustrator 26.0.1, SVG Export Plug-In . SVG Version: 6.00 Build 0)  -->
<svg version="1.1" id="Layer_1" xmlns="http://www.w3.org/2000/svg" xmlns:xlink="http://www.w3.org/1999/xlink" x="0px" y="0px"
	 viewBox="0 0 26.24 26.25" style="enable-background:new 0 0 26.24 26.25;" xml:space="preserve">
<style type="text/css">
	.st0{fill:#CE3C24;}
</style>
<g id="Acorbat_00000143604878671291702840000012630514238854087098_">
	<g>
		<path class="st0" d="M26.09,16.38c-0.97-1.6-4.76-1.08-7.02-0.76c-0.38,0.05-0.72,0.1-1,0.13c-2.56-1.71-4.48-4.15-5.56-7.06
			c0.11-0.45,0.23-0.88,0.34-1.29c0.44-1.6,0.81-2.97,0.81-4.26c0-0.55-0.07-1.08-0.22-1.61c-0.32-1.16-1.07-1.6-1.65-1.52
			c-0.77,0.07-1.44,0.53-1.81,1.22c-0.72,1.68,0.47,5.95,0.98,7.78c0.07,0.25,0.12,0.44,0.16,0.57c-1.49,4.53-6.34,13.4-9.31,15.41
			c-0.07,0.04-0.16,0.06-0.24,0.04c-0.08-0.02-0.15-0.07-0.19-0.14c-0.05-0.08-0.06-0.17-0.04-0.26c0.29-0.9,1.18-2.34,3.83-4.08
			c0.18-0.2,0.36-0.41,0.52-0.63l0.29-0.41l-0.45,0.22c-3.54,1.75-5.39,3.3-5.52,4.59c-0.05,0.55,0.21,1.06,0.79,1.5
			c0.18,0.13,0.38,0.23,0.59,0.3c0.24,0.09,0.49,0.13,0.74,0.13c1.9,0,4.2-2.45,6.46-6.92c2.71-0.97,5.52-1.7,8.36-2.17
			c3.34,2.3,5.86,3.06,7.71,2.34c0.65-0.29,1.06-0.5,1.3-1.26l0.14-0.35C26.3,17.42,26.3,16.87,26.09,16.38z M11.83,1.33
			c0.04-0.08,0.1-0.14,0.18-0.17c0.03-0.01,0.07-0.02,0.11-0.02c0.04,0,0.08,0.01,0.12,0.02c0.03,0.02,0.06,0.03,0.08,0.06
			c1.21,1.09,0.61,3.09-0.02,5.2c-0.08,0.26-0.16,0.51-0.23,0.77C11.63,5.39,11.27,2.65,11.83,1.33z M8.91,18.36
			c1.13-2.49,2.08-5.08,2.85-7.72c1,2.1,2.35,3.96,4.02,5.56C13.43,16.69,11.13,17.41,8.91,18.36z M25.86,17.83l-0.01,0.16
			l-0.11,0.14c-0.99,1.31-3.94,0.16-6.3-1.29c2.69-0.28,4.46-0.3,5.26-0.04C25.87,17.17,25.87,17.72,25.86,17.83z"/>
	</g>
</g>
</svg>
