<?xml version="1.0" encoding="utf-8"?>
<!-- Generator: Adobe Illustrator 26.0.1, SVG Export Plug-In . SVG Version: 6.00 Build 0)  -->
<svg version="1.1" id="Layer_1" xmlns="http://www.w3.org/2000/svg" xmlns:xlink="http://www.w3.org/1999/xlink" x="0px" y="0px"
	 viewBox="0 0 47 47" style="enable-background:new 0 0 47 47;" xml:space="preserve">
<style type="text/css">
	.st0{opacity:0.88;clip-path:url(#SVGID_00000057117828110740505840000002410056426307796376_);}
	.st1{clip-path:url(#SVGID_00000053525370102728549280000011413057632400484000_);}
	.st2{clip-path:url(#SVGID_00000114031283683750417350000009420176071708761013_);}
	.st3{filter:url(#Adobe_OpacityMaskFilter);}
	.st4{clip-path:url(#SVGID_00000018952959877173691280000004244305301372084903_);}
	.st5{opacity:0.83;clip-path:url(#SVGID_00000036956782964371513890000011810396692982290099_);}
	.st6{clip-path:url(#SVGID_00000178201140735274016630000004822042754199082418_);}
	.st7{clip-path:url(#SVGID_00000028289639674242740300000008810902163746392974_);}
	.st8{filter:url(#Adobe_OpacityMaskFilter_00000114068175939508356310000006236347162091213207_);}
	.st9{clip-path:url(#SVGID_00000065061022230467564770000003898313788902940604_);}
	.st10{clip-path:url(#SVGID_00000134237206467146813030000014552428811910330531_);}
	.st11{clip-path:url(#SVGID_00000081643501225970791070000012188237934673502864_);}
	.st12{filter:url(#Adobe_OpacityMaskFilter_00000103953957404557026710000012818675611114896055_);}
	.st13{clip-path:url(#SVGID_00000071533711500219556990000016040213912197897402_);}
	.st14{clip-path:url(#SVGID_00000072247804628868845650000015228742108971884980_);}
	.st15{fill:#FFFFFF;}
	.st16{clip-path:url(#SVGID_00000047020513320273637670000010081153914349276345_);}
	.st17{clip-path:url(#SVGID_00000128476720297009759730000009972736582545475746_);}
	.st18{fill:none;}
	.st19{opacity:0.9;clip-path:url(#SVGID_00000072247804628868845650000015228742108971884980_);}
	.st20{clip-path:url(#SVGID_00000134223566952844713710000001304376362238092448_);}
	.st21{clip-path:url(#SVGID_00000111177639178539536950000016439066712588172991_);}
	.st22{filter:url(#Adobe_OpacityMaskFilter_00000106842087625228037290000002248013920956619406_);}
	.st23{clip-path:url(#SVGID_00000035502889033117612070000018248948454523741852_);}
	.st24{opacity:0.73;}
	.st25{clip-path:url(#SVGID_00000078760979412837883510000005259750444705177260_);}
	.st26{clip-path:url(#SVGID_00000180334250479572117340000015977971525553124262_);}
	.st27{filter:url(#Adobe_OpacityMaskFilter_00000001633843107800535100000011400714644354243257_);}
	.st28{clip-path:url(#SVGID_00000111188283622429847120000017817848832942841746_);}
	.st29{opacity:0.25;clip-path:url(#SVGID_00000092458776266205350230000013143582437648028835_);fill:#B9A2D5;}
	.st30{clip-path:url(#SVGID_00000075137230202097726360000016602663920360196276_);}
	.st31{clip-path:url(#SVGID_00000120559249625387921570000013655617869270501562_);}
	.st32{filter:url(#Adobe_OpacityMaskFilter_00000123437822139398298100000012160529955712517273_);}
	.st33{clip-path:url(#SVGID_00000119115708246834014100000008920409905900193171_);}
	.st34{fill:none;stroke:#8F8F8F;stroke-miterlimit:10;}
	.st35{fill:#CE3C24;}
	.st36{clip-path:url(#SVGID_00000120520943194122897820000003703235748934158005_);}
	.st37{clip-path:url(#SVGID_00000162334356190293820640000014954150034612669318_);}
	.st38{filter:url(#Adobe_OpacityMaskFilter_00000072972319859293368760000014166489563454455724_);}
	.st39{clip-path:url(#SVGID_00000036940945895026921470000007535805675738695071_);}
	.st40{clip-path:url(#SVGID_00000075861833715116803490000008008983909951521454_);}
	.st41{clip-path:url(#SVGID_00000060011772279290889720000008827960077792474808_);}
	.st42{clip-path:url(#SVGID_00000139994972464027101480000015594454369159062453_);}
	.st43{filter:url(#Adobe_OpacityMaskFilter_00000095333907269830926670000014348903289209503116_);}
	.st44{clip-path:url(#SVGID_00000086657324086936348620000018409571601460861839_);}
	.st45{clip-path:url(#SVGID_00000165203247795828510740000008550788327102454675_);}
	.st46{clip-path:url(#SVGID_00000040540371179916942880000009747728088925333157_);}
	.st47{filter:url(#Adobe_OpacityMaskFilter_00000110434925736783501180000000000179257088755631_);}
	.st48{clip-path:url(#SVGID_00000072255822270035193240000013103409854471104410_);}
	.st49{opacity:0.9;}
	.st50{clip-path:url(#SVGID_00000181070625224705631110000011048491394032990867_);}
	.st51{clip-path:url(#SVGID_00000030455565271857944090000004066146643737790592_);}
	.st52{filter:url(#Adobe_OpacityMaskFilter_00000034796094067147127650000018318090594725287063_);}
	.st53{clip-path:url(#SVGID_00000144326670042823190260000002314205528284970133_);}
	.st54{opacity:0.59;}
	.st55{clip-path:url(#SVGID_00000048491690796429752090000013429249015730409895_);}
	.st56{clip-path:url(#SVGID_00000052086219091492019820000000090848303994829974_);}
	.st57{filter:url(#Adobe_OpacityMaskFilter_00000024716972409159034110000015184783756442499753_);}
	.st58{clip-path:url(#SVGID_00000183250403488097659260000017523667982120207288_);}
	.st59{fill:none;stroke:#FFFFFF;stroke-miterlimit:10;}
	.st60{opacity:0.38;fill:none;stroke:#FFFFFF;stroke-width:0.75;stroke-miterlimit:10;}
	.st61{clip-path:url(#SVGID_00000008864301585810621600000010216036242145906607_);}
	.st62{clip-path:url(#SVGID_00000027587964511143213640000015436173524187295931_);}
	.st63{filter:url(#Adobe_OpacityMaskFilter_00000001628618981277758290000008672620909405275321_);}
	.st64{clip-path:url(#SVGID_00000182518163649391315030000013988085159097189532_);}
	.st65{display:none;}
	.st66{display:inline;}
	.st67{clip-path:url(#SVGID_00000166676009640288304000000006501459906784853639_);}
	.st68{clip-path:url(#SVGID_00000132789321869202506280000003100420909242987183_);}
	.st69{clip-path:url(#SVGID_00000054971690730860734860000000821129467792691378_);}
	.st70{filter:url(#Adobe_OpacityMaskFilter_00000145033177797412630130000009472282659346801300_);}
	.st71{clip-path:url(#SVGID_00000024698771247102591890000007483723378500212636_);}
	.st72{clip-path:url(#SVGID_00000034781864278228308740000011525780878780148389_);}
	.st73{clip-path:url(#SVGID_00000062908571529484470900000012019637970222698655_);}
	.st74{clip-path:url(#SVGID_00000019676499937605083460000012570985565423040145_);}
	.st75{opacity:0.9;clip-path:url(#SVGID_00000034781864278228308740000011525780878780148389_);}
	.st76{clip-path:url(#SVGID_00000132072857148203543570000005579563196669991593_);}
	.st77{clip-path:url(#SVGID_00000036935261761739529280000014983091295222997898_);}
	.st78{filter:url(#Adobe_OpacityMaskFilter_00000065059574248697691710000008051004387593908390_);}
	.st79{clip-path:url(#SVGID_00000077295078742377886040000017606881844378700991_);}
	.st80{opacity:0.83;}
	.st81{clip-path:url(#SVGID_00000017515819366276305380000011429224316882607002_);}
	.st82{clip-path:url(#SVGID_00000018940202766958097360000010487787546915613859_);}
	.st83{filter:url(#Adobe_OpacityMaskFilter_00000041998240599254866040000013345214057725778082_);}
	.st84{clip-path:url(#SVGID_00000043439792180359465760000015982011434350382740_);}
	.st85{opacity:0.88;clip-path:url(#SVGID_00000026865329828371748650000006657879676878019744_);}
	.st86{clip-path:url(#SVGID_00000183233806965569799120000006896162092636740508_);}
	.st87{clip-path:url(#SVGID_00000070096890068866758310000000909453300199608711_);}
	.st88{filter:url(#Adobe_OpacityMaskFilter_00000108267866846745222230000012621454209485876664_);}
	.st89{clip-path:url(#SVGID_00000007408133727097240380000002735204044529304202_);}
</style>
<g>
	<g>
		<g>
			<g>
				<g>
					<path class="st34" d="M23.5,46.5L23.5,46.5c-12.7,0-23-10.3-23-23v0c0-12.7,10.3-23,23-23h0c12.7,0,23,10.3,23,23v0
						C46.5,36.2,36.2,46.5,23.5,46.5z"/>
				</g>
			</g>
		</g>
	</g>
</g>
<g id="Acorbat_00000143604878671291702840000012630514238854087098_">
	<g>
		<path class="st35" d="M36.46,26.75c-0.97-1.6-4.76-1.08-7.02-0.76c-0.38,0.05-0.72,0.1-1,0.13c-2.56-1.71-4.48-4.15-5.56-7.06
			c0.11-0.45,0.23-0.88,0.34-1.29c0.44-1.6,0.81-2.97,0.81-4.26c0-0.55-0.07-1.08-0.22-1.61c-0.32-1.16-1.07-1.6-1.65-1.52
			c-0.77,0.07-1.44,0.53-1.81,1.22c-0.72,1.68,0.47,5.95,0.98,7.78c0.07,0.25,0.12,0.44,0.16,0.57c-1.49,4.53-6.34,13.4-9.31,15.41
			c-0.07,0.04-0.16,0.06-0.24,0.04c-0.08-0.02-0.15-0.07-0.19-0.14c-0.05-0.08-0.06-0.17-0.04-0.26c0.29-0.9,1.18-2.34,3.83-4.08
			c0.18-0.2,0.36-0.41,0.52-0.63l0.29-0.41L15.9,30.1c-3.54,1.75-5.39,3.3-5.52,4.59c-0.05,0.55,0.21,1.06,0.79,1.5
			c0.18,0.13,0.38,0.23,0.59,0.3c0.24,0.09,0.49,0.13,0.74,0.13c1.9,0,4.2-2.45,6.46-6.92c2.71-0.97,5.52-1.7,8.36-2.17
			c3.34,2.3,5.86,3.06,7.71,2.34c0.65-0.29,1.06-0.5,1.3-1.26l0.14-0.35C36.67,27.79,36.67,27.24,36.46,26.75z M22.2,11.7
			c0.04-0.08,0.1-0.14,0.18-0.17c0.03-0.01,0.07-0.02,0.11-0.02c0.04,0,0.08,0.01,0.12,0.02c0.03,0.02,0.06,0.03,0.08,0.06
			c1.21,1.09,0.61,3.09-0.02,5.2c-0.08,0.26-0.16,0.51-0.23,0.77C22,15.76,21.64,13.02,22.2,11.7z M19.28,28.73
			c1.13-2.49,2.08-5.08,2.85-7.72c1,2.1,2.35,3.96,4.02,5.56C23.8,27.06,21.5,27.78,19.28,28.73z M36.23,28.2l-0.01,0.16l-0.11,0.14
			c-0.99,1.31-3.94,0.16-6.3-1.29c2.69-0.28,4.46-0.3,5.26-0.04C36.24,27.54,36.24,28.09,36.23,28.2z"/>
	</g>
</g>
</svg>
