<?xml version="1.0" encoding="utf-8"?>
<!-- Generator: Adobe Illustrator 26.0.1, SVG Export Plug-In . SVG Version: 6.00 Build 0)  -->
<svg version="1.1" id="Layer_1" xmlns="http://www.w3.org/2000/svg" xmlns:xlink="http://www.w3.org/1999/xlink" x="0px" y="0px"
	 viewBox="0 0 47 47" style="enable-background:new 0 0 47 47;" xml:space="preserve">
<style type="text/css">
	.st0{opacity:0.88;clip-path:url(#SVGID_00000163035047285931967750000000989629670719445126_);}
	.st1{clip-path:url(#SVGID_00000062187144951995824650000016499683042807238284_);}
	.st2{clip-path:url(#SVGID_00000019652196408678391940000017010395603733494923_);}
	.st3{filter:url(#Adobe_OpacityMaskFilter);}
	.st4{clip-path:url(#SVGID_00000176753426208655560470000000688841806542982800_);}
	.st5{opacity:0.83;clip-path:url(#SVGID_00000152985071861092502730000007518268476503097789_);}
	.st6{clip-path:url(#SVGID_00000080198869641406252510000008988600248142958723_);}
	.st7{clip-path:url(#SVGID_00000070082880166637558970000009055239457165513909_);}
	.st8{filter:url(#Adobe_OpacityMaskFilter_00000049937673261728935080000016075296127271572388_);}
	.st9{clip-path:url(#SVGID_00000085939790557044616570000014729730807363104399_);}
	.st10{clip-path:url(#SVGID_00000137128968020624261600000014862557671636228004_);}
	.st11{clip-path:url(#SVGID_00000152962725209273535480000001635887870559457172_);}
	.st12{filter:url(#Adobe_OpacityMaskFilter_00000067947137427327945470000009883702168159152795_);}
	.st13{clip-path:url(#SVGID_00000072968696117112548500000013241346348717444286_);}
	.st14{clip-path:url(#SVGID_00000019666966179688482370000008109795537727133624_);}
	.st15{fill:#FFFFFF;}
	.st16{clip-path:url(#SVGID_00000153681625593969876420000008019635244865752231_);}
	.st17{clip-path:url(#SVGID_00000178181995092702694380000002594465849053777544_);}
	.st18{fill:none;}
	.st19{opacity:0.9;clip-path:url(#SVGID_00000019666966179688482370000008109795537727133624_);}
	.st20{clip-path:url(#SVGID_00000000942882223296130570000012289187736735638207_);}
	.st21{clip-path:url(#SVGID_00000080908400748364457930000009107378379804520591_);}
	.st22{filter:url(#Adobe_OpacityMaskFilter_00000027593949262326374470000007329950336023129242_);}
	.st23{clip-path:url(#SVGID_00000106825537402420276190000011882989064452023708_);}
	.st24{opacity:0.73;}
	.st25{clip-path:url(#SVGID_00000134239944747782642110000006890590852357725105_);}
	.st26{clip-path:url(#SVGID_00000077299227905843293500000017175590364854299270_);}
	.st27{filter:url(#Adobe_OpacityMaskFilter_00000169517352000813407100000017405964213853369507_);}
	.st28{clip-path:url(#SVGID_00000124859611554957730940000003046149051068059017_);}
	.st29{opacity:0.25;clip-path:url(#SVGID_00000046307804992385250750000016911613142915955625_);fill:#B9A2D5;}
	.st30{clip-path:url(#SVGID_00000115506272660901450420000000038611762956248961_);}
	.st31{clip-path:url(#SVGID_00000163763669294427885620000002891018578089768346_);}
	.st32{filter:url(#Adobe_OpacityMaskFilter_00000182491735586851132530000004501862093375488134_);}
	.st33{clip-path:url(#SVGID_00000140720150412718816660000017630522520151753606_);}
	.st34{fill:none;stroke:#8F8F8F;stroke-miterlimit:10;}
	.st35{fill:#CE3C24;}
	.st36{clip-path:url(#SVGID_00000083055715318767910590000017168944055681576354_);}
	.st37{clip-path:url(#SVGID_00000141449950976129442290000016066815585789767045_);}
	.st38{filter:url(#Adobe_OpacityMaskFilter_00000047025469776632650290000014642538674604853427_);}
	.st39{clip-path:url(#SVGID_00000169540550463301133500000009348701949046833048_);}
	.st40{clip-path:url(#SVGID_00000134928261501984091830000015786539087423820435_);}
	.st41{clip-path:url(#SVGID_00000145021740351585909180000004486930771210495137_);}
	.st42{clip-path:url(#SVGID_00000111894733419913700610000011251058961317912229_);}
	.st43{filter:url(#Adobe_OpacityMaskFilter_00000134959360032987870020000000136000319753670581_);}
	.st44{clip-path:url(#SVGID_00000141451123297141734510000005102429964083873182_);}
	.st45{clip-path:url(#SVGID_00000129896869312442903900000010853911230572997054_);}
	.st46{clip-path:url(#SVGID_00000160165084868498638720000016436452924151484305_);}
	.st47{filter:url(#Adobe_OpacityMaskFilter_00000054987928765006725430000016683708399456063678_);}
	.st48{clip-path:url(#SVGID_00000070830976547397771210000011144390383163678651_);}
	.st49{opacity:0.9;}
	.st50{clip-path:url(#SVGID_00000129198746802484000470000004105645876335092909_);}
	.st51{clip-path:url(#SVGID_00000019640494604528340210000001960663316265798272_);}
	.st52{filter:url(#Adobe_OpacityMaskFilter_00000067211315125147785510000005334272129015548800_);}
	.st53{clip-path:url(#SVGID_00000134967816465077322730000001131247293338920324_);}
	.st54{opacity:0.59;}
	.st55{clip-path:url(#SVGID_00000040539932041687616390000008487633956133790899_);}
	.st56{clip-path:url(#SVGID_00000082333050170438345330000007100766676484474542_);}
	.st57{filter:url(#Adobe_OpacityMaskFilter_00000039097516902127720250000015745408055776476841_);}
	.st58{clip-path:url(#SVGID_00000147197969694964877540000010026582606282437044_);}
	.st59{fill:none;stroke:#FFFFFF;stroke-miterlimit:10;}
	.st60{opacity:0.38;fill:none;stroke:#FFFFFF;stroke-width:0.75;stroke-miterlimit:10;}
	.st61{clip-path:url(#SVGID_00000166648358427010462390000001031731616562003102_);}
	.st62{clip-path:url(#SVGID_00000021092785926530468760000010430245809371204490_);}
	.st63{filter:url(#Adobe_OpacityMaskFilter_00000032640656553561626800000008256286912849060743_);}
	.st64{clip-path:url(#SVGID_00000072249353682765436420000015951074392264606855_);}
	.st65{display:none;}
	.st66{display:inline;}
	.st67{clip-path:url(#SVGID_00000090278210352132734520000007537160264884089763_);}
	.st68{clip-path:url(#SVGID_00000007390046314933762660000017111500283334495659_);}
	.st69{clip-path:url(#SVGID_00000044892916585235895670000003624941296607594639_);}
	.st70{filter:url(#Adobe_OpacityMaskFilter_00000059289866569345268890000007696157289999737275_);}
	.st71{clip-path:url(#SVGID_00000031894418809510599540000009896442819283340181_);}
	.st72{clip-path:url(#SVGID_00000017480421550750485830000016869391479364734593_);}
	.st73{clip-path:url(#SVGID_00000013173061284013965940000001660598601958110896_);}
	.st74{clip-path:url(#SVGID_00000131330642087798335850000001717489275893755058_);}
	.st75{opacity:0.9;clip-path:url(#SVGID_00000017480421550750485830000016869391479364734593_);}
	.st76{clip-path:url(#SVGID_00000180346611316388174460000016435700523004549302_);}
	.st77{clip-path:url(#SVGID_00000080204395587994473330000009481879122350043520_);}
	.st78{filter:url(#Adobe_OpacityMaskFilter_00000111883107168615676990000001073589623391307705_);}
	.st79{clip-path:url(#SVGID_00000061458865269592039400000005730041866640843157_);}
	.st80{opacity:0.83;}
	.st81{clip-path:url(#SVGID_00000177480920832261948110000002724516353719384202_);}
	.st82{clip-path:url(#SVGID_00000182493873336767644500000007668420422635417010_);}
	.st83{filter:url(#Adobe_OpacityMaskFilter_00000178201410746209892770000008920675072770375340_);}
	.st84{clip-path:url(#SVGID_00000150101005972138294440000010466877022416023226_);}
	.st85{opacity:0.88;clip-path:url(#SVGID_00000091737909638284971840000004206237740413234314_);}
	.st86{clip-path:url(#SVGID_00000025440773043499599690000015954238433445697944_);}
	.st87{clip-path:url(#SVGID_00000036223385765682958720000011266492244131196066_);}
	.st88{filter:url(#Adobe_OpacityMaskFilter_00000178186899215040890020000010799486034130869932_);}
	.st89{clip-path:url(#SVGID_00000112610760990921646160000015199056816061396908_);}
</style>
<g>
	<g>
		<g>
			<g>
				<path class="st35" d="M23.5,46.5L23.5,46.5c-12.7,0-23-10.3-23-23v0c0-12.7,10.3-23,23-23h0c12.7,0,23,10.3,23,23v0
					C46.5,36.2,36.2,46.5,23.5,46.5z"/>
			</g>
		</g>
	</g>
</g>
<g id="Acorbat_00000135677242422570036360000017110296658002086057_">
	<g>
		<path class="st15" d="M36.46,26.75c-0.97-1.6-4.76-1.08-7.02-0.76c-0.38,0.05-0.72,0.1-1,0.13c-2.56-1.71-4.48-4.15-5.56-7.06
			c0.11-0.45,0.23-0.88,0.34-1.29c0.44-1.6,0.81-2.97,0.81-4.26c0-0.55-0.07-1.08-0.22-1.61c-0.32-1.16-1.07-1.6-1.65-1.52
			c-0.77,0.07-1.44,0.53-1.81,1.22c-0.72,1.68,0.47,5.95,0.98,7.78c0.07,0.25,0.12,0.44,0.16,0.57c-1.49,4.53-6.34,13.4-9.31,15.41
			c-0.07,0.04-0.16,0.06-0.24,0.04c-0.08-0.02-0.15-0.07-0.19-0.14c-0.05-0.08-0.06-0.17-0.04-0.26c0.29-0.9,1.18-2.34,3.83-4.08
			c0.18-0.2,0.36-0.41,0.52-0.63l0.29-0.41L15.9,30.1c-3.54,1.75-5.39,3.3-5.52,4.59c-0.05,0.55,0.21,1.06,0.79,1.5
			c0.18,0.13,0.38,0.23,0.59,0.3c0.24,0.09,0.49,0.13,0.74,0.13c1.9,0,4.2-2.45,6.46-6.92c2.71-0.97,5.52-1.7,8.36-2.17
			c3.34,2.3,5.86,3.06,7.71,2.34c0.65-0.29,1.06-0.5,1.3-1.26l0.14-0.35C36.67,27.79,36.67,27.24,36.46,26.75z M22.2,11.7
			c0.04-0.08,0.1-0.14,0.18-0.17c0.03-0.01,0.07-0.02,0.11-0.02c0.04,0,0.08,0.01,0.12,0.02c0.03,0.02,0.06,0.03,0.08,0.06
			c1.21,1.09,0.61,3.09-0.02,5.2c-0.08,0.26-0.16,0.51-0.23,0.77C22,15.76,21.64,13.02,22.2,11.7z M19.28,28.73
			c1.13-2.49,2.08-5.08,2.85-7.72c1,2.1,2.35,3.96,4.02,5.56C23.8,27.06,21.5,27.78,19.28,28.73z M36.23,28.2l-0.01,0.16l-0.11,0.14
			c-0.99,1.31-3.94,0.16-6.3-1.29c2.69-0.28,4.46-0.3,5.26-0.04C36.24,27.54,36.24,28.09,36.23,28.2z"/>
	</g>
</g>
</svg>
