<?xml version="1.0" encoding="utf-8"?>
<!-- Generator: Adobe Illustrator 26.0.1, SVG Export Plug-In . SVG Version: 6.00 Build 0)  -->
<svg version="1.1" id="Layer_1" xmlns="http://www.w3.org/2000/svg" xmlns:xlink="http://www.w3.org/1999/xlink" x="0px" y="0px"
	 viewBox="0 0 16 16" style="enable-background:new 0 0 16 16;" xml:space="preserve">
<style type="text/css">
	.st0{fill:#929292;}
	.st1{fill:#CE3C24;}
</style>
<g id="Layer_2_00000115514504438960146220000017966457094925003689_">
	<path class="st0" d="M4.62,9.12h0.97c0.09,0,0.17,0.09,0.17,0.17v6.14c0,0.32,0.26,0.57,0.57,0.57h2.24c0.32,0,0.57-0.26,0.57-0.57
		V9.29c0-0.09,0.09-0.17,0.17-0.17h1.61c0.29,0,0.54-0.2,0.57-0.49l0.37-2.24c0.06-0.34-0.23-0.69-0.57-0.69H9.41
		c-0.14,0-0.26-0.11-0.26-0.26V4.01c0-0.37,0.2-0.57,0.57-0.57h1.69c0.32,0,0.57-0.26,0.57-0.57V0.57c0-0.32-0.26-0.57-0.57-0.57
		H9.38C5.65,0,5.73,3.01,5.73,3.44v2.09c0,0.09-0.09,0.17-0.17,0.17H4.59c-0.32,0-0.57,0.26-0.57,0.57v2.24
		C4.04,8.86,4.3,9.12,4.62,9.12z"/>
</g>
</svg>
