<?xml version="1.0" encoding="utf-8"?>
<!-- Generator: Adobe Illustrator 26.0.1, SVG Export Plug-In . SVG Version: 6.00 Build 0)  -->
<svg version="1.1" id="Layer_1" xmlns="http://www.w3.org/2000/svg" xmlns:xlink="http://www.w3.org/1999/xlink" x="0px" y="0px"
	 viewBox="0 0 16 16" style="enable-background:new 0 0 16 16;" xml:space="preserve">
<style type="text/css">
	.st0{fill:#929292;}
	.st1{fill:#CE3C24;}
</style>
<g id="Layer_2_00000111174268715694935910000000344399826610497978_">
	<path class="st0" d="M4.75,14.88h6.51c2.01,0,3.64-1.66,3.64-3.7V4.82c-0.03-2.04-1.66-3.7-3.67-3.7H4.75
		c-2.01,0-3.64,1.66-3.64,3.7v6.37C1.1,13.22,2.74,14.88,4.75,14.88z M12,3.41c0.46,0,0.83,0.37,0.83,0.86S12.46,5.13,12,5.13
		c-0.46,0-0.83-0.37-0.83-0.86S11.54,3.41,12,3.41z M7.99,4.56c1.86,0,3.35,1.55,3.35,3.44s-1.49,3.44-3.35,3.44S4.63,9.89,4.63,8
		S6.12,4.56,7.99,4.56z"/>
</g>
</svg>
