<?xml version="1.0" encoding="utf-8"?>
<!-- Generator: Adobe Illustrator 26.0.1, SVG Export Plug-In . SVG Version: 6.00 Build 0)  -->
<svg version="1.1" id="Layer_1" xmlns="http://www.w3.org/2000/svg" xmlns:xlink="http://www.w3.org/1999/xlink" x="0px" y="0px"
	 viewBox="0 0 16 16" style="enable-background:new 0 0 16 16;" xml:space="preserve">
<style type="text/css">
	.st0{fill:#929292;}
	.st1{fill:#CE3C24;}
</style>
<g id="Layer_2_00000008869435153592412870000016176967200318903716_">
	<path class="st0" d="M0.24,14.51c0,0.2,0.17,0.37,0.37,0.37h2.67c0.2,0,0.37-0.17,0.37-0.37V5.68c0-0.2-0.17-0.37-0.37-0.37H0.62
		c-0.2,0-0.37,0.17-0.37,0.37V14.51z"/>
	<path class="st0" d="M11.89,5.22c-1.29,0-2.21,0.52-2.7,1.06C9.08,6.39,8.87,6.31,8.87,6.14V5.68c0-0.2-0.17-0.37-0.37-0.37h-2.7
		c-0.2,0-0.37,0.17-0.37,0.37c0.03,1.63,0,7.28,0,8.8c0,0.2,0.17,0.37,0.37,0.37h2.72c0.2,0,0.37-0.17,0.37-0.37V9.69
		c0-0.29,0-0.57,0.09-0.77c0.23-0.57,0.75-1.18,1.63-1.18c1.18,0,1.72,0.89,1.72,2.18v4.56c0,0.2,0.17,0.37,0.37,0.37h2.67
		c0.2,0,0.37-0.17,0.37-0.37V9.55C15.73,6.59,14.04,5.22,11.89,5.22z"/>
	<path class="st0" d="M1.94,4.24L1.94,4.24c1.09,0,1.75-0.69,1.75-1.55C3.66,1.78,3.03,1.12,1.96,1.12S0.24,1.78,0.24,2.67
		S0.9,4.24,1.94,4.24z"/>
</g>
</svg>
