<?xml version="1.0" encoding="utf-8"?>
<!-- Generator: Adobe Illustrator 26.0.1, SVG Export Plug-In . SVG Version: 6.00 Build 0)  -->
<svg version="1.1" id="Layer_1" xmlns="http://www.w3.org/2000/svg" xmlns:xlink="http://www.w3.org/1999/xlink" x="0px" y="0px"
	 viewBox="0 0 16 16" style="enable-background:new 0 0 16 16;" xml:space="preserve">
<style type="text/css">
	.st0{fill:#929292;}
	.st1{fill:#CE3C24;}
</style>
<g id="Layer_2_00000118358447332636222500000000861124717659067785_">
	<path class="st0" d="M2.57,14.48C4.29,14.7,6.09,14.82,8,14.82s3.71-0.11,5.43-0.34c1.49-0.2,2.57-1.46,2.57-2.94V4.42
		c0-1.49-1.11-2.74-2.57-2.94C11.71,1.25,9.89,1.13,8,1.13S4.29,1.25,2.57,1.5C1.11,1.7,0,2.93,0,4.42v7.11
		C0,13.05,1.11,14.28,2.57,14.48z M6.17,6.68c0-0.77,0.86-1.23,1.51-0.83l2.23,1.43c0.51,0.31,0.51,1.06,0,1.4L7.69,10.1
		c-0.66,0.43-1.51-0.06-1.51-0.83L6.17,6.68z"/>
</g>
</svg>
