<?xml version="1.0" encoding="utf-8"?>
<!-- Generator: Adobe Illustrator 26.0.1, SVG Export Plug-In . SVG Version: 6.00 Build 0)  -->
<svg version="1.1" id="Layer_1" xmlns="http://www.w3.org/2000/svg" xmlns:xlink="http://www.w3.org/1999/xlink" x="0px" y="0px"
	 viewBox="0 0 87 78" style="enable-background:new 0 0 87 78;" xml:space="preserve">
<style type="text/css">
	.st0{clip-path:url(#SVGID_00000129904278310206022050000004279722835693448599_);}
	.st1{fill:none;stroke:#0C0C15;stroke-miterlimit:10;}
	.st2{fill:none;stroke:#CE3C24;stroke-miterlimit:10;}
	.st3{fill:#CE3C24;}
	.st4{opacity:0.06;}
</style>
<g>
	<path class="st1" d="M2.5,73.37v-28.1c0-1.45,1.16-2.63,2.59-2.63h33.03c1.43,0,2.59-1.18,2.59-2.63v-8c0-2.11,2.33-3.36,4.05-2.16
		l14.26,9.96c1.72,1.2,4.05-0.05,4.05-2.16v-5.51c0-2.14,2.38-3.38,4.09-2.13l16.26,11.85c0.68,0.49,1.08,1.29,1.08,2.13v29.38
		c0,1.45-1.16,2.63-2.59,2.63H5.09C3.66,76,2.5,74.82,2.5,73.37z"/>
	<path class="st1" d="M24.27,13.55h-6.03c-1.29,0-2.39,0.97-2.56,2.27l-3.63,26.83h18.4l-3.63-26.83
		C26.65,14.52,25.56,13.55,24.27,13.55z"/>
	<path class="st1" d="M20.94,8.83C19.36,7,20.49,3.85,22.61,2.71s4.72-0.75,6.99,0.03s4.43,1.95,6.8,2.34c2.2,0.36,4.5,0,6.5-1
		c1.05-0.53,2.02-1.23,3.13-1.61s2.46-0.37,3.33,0.43"/>
	<path class="st1" d="M29.75,11.68c1.51-0.35,2.89,0.91,4.38,1.36c2.24,0.68,4.55-0.5,6.7-1.42c3.24-1.38,7.11-2.17,10.18-0.43
		c1.4,0.8,2.66,2.12,4.27,2.15c0.35,0.01,0.74-0.08,0.93-0.37c0.19-0.29-0.01-0.81-0.35-0.76"/>
	<path class="st2" d="M59.45,54.95h-4.61c-3.03,0-5.48,2.45-5.48,5.48V76h15.58V60.43C64.93,57.4,62.48,54.95,59.45,54.95z"/>
</g>
</svg>
