<?xml version="1.0" encoding="utf-8"?>
<!-- Generator: Adobe Illustrator 26.0.1, SVG Export Plug-In . SVG Version: 6.00 Build 0)  -->
<svg version="1.1" id="Layer_1" xmlns="http://www.w3.org/2000/svg" xmlns:xlink="http://www.w3.org/1999/xlink" x="0px" y="0px"
	 viewBox="0 0 87 78" style="enable-background:new 0 0 87 78;" xml:space="preserve">
<style type="text/css">
	.st0{clip-path:url(#SVGID_00000056399197427081442100000012507521173264044966_);}
	.st1{fill:none;stroke:#0C0C15;stroke-miterlimit:10;}
	.st2{fill:none;stroke:#CE3C24;stroke-miterlimit:10;}
	.st3{fill:#CE3C24;}
	.st4{opacity:0.06;}
</style>
<g>
	<g>
		<g>
			<g>
				<path class="st1" d="M30.34,3.08c-4.05-1.81-8.6,0.81-9.09,5.25C25.31,10.14,29.85,7.52,30.34,3.08z"/>
				<path class="st1" d="M38.3,72.47c-6.61-0.96-12.65-3.73-17.59-7.8C12.65,58.03,7.49,47.93,7.49,36.63
					c0-11.56,5.39-21.87,13.79-28.5"/>
				<path class="st1" d="M9.29,5.71c-1.8,4.08,0.81,8.65,5.22,9.15C16.31,10.77,13.7,6.2,9.29,5.71z"/>
				<path class="st1" d="M2.92,18.34c-1.8,4.08,0.81,8.65,5.22,9.15C9.94,23.41,7.33,18.84,2.92,18.34z"/>
				<path class="st1" d="M0.74,34.29c-1.18,4.3,2.07,8.44,6.5,8.27C8.43,38.26,5.18,34.12,0.74,34.29z"/>
				<path class="st1" d="M2.93,50.9c0.51,4.43,5.07,7.03,9.12,5.2C11.54,51.66,6.98,49.06,2.93,50.9z"/>
				<path class="st1" d="M11.05,65.13c2.18,3.89,7.38,4.52,10.41,1.26C19.28,62.49,14.07,61.87,11.05,65.13z"/>
				<path class="st1" d="M25.1,74.58c3.15,3.15,8.32,2.32,10.35-1.65C32.31,69.78,27.13,70.6,25.1,74.58z"/>
			</g>
			<g>
				<path class="st1" d="M56.66,3.08c4.05-1.81,8.6,0.81,9.09,5.25C61.69,10.14,57.15,7.52,56.66,3.08z"/>
				<path class="st1" d="M48.7,72.47c6.61-0.96,12.65-3.73,17.59-7.8c8.06-6.64,13.21-16.74,13.21-28.04
					c0-11.56-5.39-21.87-13.79-28.5"/>
				<path class="st1" d="M77.71,5.71c1.8,4.08-0.81,8.65-5.22,9.15C70.69,10.77,73.3,6.2,77.71,5.71z"/>
				<path class="st1" d="M84.08,18.34c1.8,4.08-0.81,8.65-5.22,9.15C77.06,23.41,79.67,18.84,84.08,18.34z"/>
				<path class="st1" d="M86.26,34.29c1.18,4.3-2.07,8.44-6.5,8.27C78.57,38.26,81.82,34.12,86.26,34.29z"/>
				<path class="st1" d="M84.07,50.9c-0.51,4.43-5.07,7.03-9.12,5.2C75.46,51.66,80.02,49.06,84.07,50.9z"/>
				<path class="st1" d="M75.95,65.13c-2.18,3.89-7.38,4.52-10.41,1.26C67.72,62.49,72.93,61.87,75.95,65.13z"/>
				<path class="st1" d="M61.9,74.58c-3.15,3.15-8.32,2.32-10.35-1.65C54.69,69.78,59.87,70.6,61.9,74.58z"/>
			</g>
		</g>
	</g>
	<g>
		<g>
			<path class="st3" d="M37.12,19.95c5.61,0,9.72,3.6,9.72,9.15c0,4-2.47,7.42-7.15,9.77l-4.28,2.18c-2.78,1.42-5.92,4.13-5.92,7.6
				h17.57v2.75h-20.4v-2.04c0-5.78,4.37-9.24,7.64-10.93l4.64-2.4c3.62-1.87,4.81-4.13,4.81-7.02c0-3.82-2.87-6.31-6.62-6.31
				c-4.24,0-7.02,2.93-6.8,7.42h-3.09C26.92,23.95,30.89,19.95,37.12,19.95z"/>
			<path class="st3" d="M59.46,51.41h-2.96V26.08c-0.44,0.67-1.24,1.02-2.43,1.02h-3.14v-2.75h2.61c1.81,0,2.78-0.8,2.96-4.04h2.96
				V51.41z"/>
		</g>
	</g>
</g>
</svg>
