<?xml version="1.0" encoding="utf-8"?>
<!-- Generator: Adobe Illustrator 26.0.1, SVG Export Plug-In . SVG Version: 6.00 Build 0)  -->
<svg version="1.1" id="Layer_1" xmlns="http://www.w3.org/2000/svg" xmlns:xlink="http://www.w3.org/1999/xlink" x="0px" y="0px"
	 viewBox="0 0 87 78" style="enable-background:new 0 0 87 78;" xml:space="preserve">
<style type="text/css">
	.st0{clip-path:url(#SVGID_00000085243401432662031760000011339558882620991647_);}
	.st1{fill:none;stroke:#0C0C15;stroke-miterlimit:10;}
	.st2{fill:none;stroke:#CE3C24;stroke-miterlimit:10;}
	.st3{fill:#CE3C24;}
	.st4{opacity:0.06;}
</style>
<g>
	<path class="st1" d="M76.38,33.44c0-2.09-0.76-4.11-2.16-5.67c-0.89-1-1.38-2.3-1.38-3.64c0-0.38,0.04-0.76,0.11-1.13
		c0.11-0.56,0.18-1.13,0.18-1.71c0-3.68-2.36-6.94-5.86-8.09c-1.64-0.54-2.93-1.82-3.46-3.46c-1.15-3.5-4.41-5.86-8.09-5.86
		c-0.58,0.01-1.16,0.07-1.72,0.18c-1.7,0.35-3.46-0.12-4.75-1.27c-3.22-2.87-8.08-2.88-11.31-0.03l-0.02,0.02
		c-0.03,0.02-0.06,0.04-0.08,0.07c-1.29,1.11-3.03,1.56-4.7,1.22c-0.56-0.11-1.14-0.18-1.71-0.18c-3.68,0-6.94,2.36-8.09,5.86
		c-0.54,1.64-1.83,2.93-3.47,3.46C16.36,14.36,14,17.62,14,21.3c0.01,0.57,0.07,1.15,0.18,1.71c0.07,0.37,0.11,0.75,0.11,1.13
		c0,1.34-0.49,2.63-1.38,3.64c-2.88,3.23-2.88,8.11,0,11.34c0.89,1,1.38,2.3,1.38,3.64c0,0.38-0.04,0.76-0.11,1.13
		c-0.11,0.56-0.17,1.13-0.18,1.71c0,3.68,2.36,6.94,5.86,8.09c1.64,0.54,2.93,1.83,3.46,3.47c1.15,3.5,4.41,5.86,8.09,5.86
		c0.57-0.01,1.15-0.07,1.71-0.18c1.7-0.34,3.46,0.13,4.77,1.27c3.23,2.88,8.11,2.88,11.35,0c1.3-1.14,3.07-1.61,4.77-1.27
		c0.56,0.11,1.14,0.18,1.71,0.18c3.68,0,6.95-2.36,8.09-5.86c0.54-1.64,1.83-2.93,3.47-3.46c3.5-1.15,5.86-4.41,5.86-8.09
		c-0.01-0.57-0.07-1.15-0.18-1.71c-0.07-0.37-0.11-0.75-0.11-1.13c0-1.34,0.49-2.63,1.38-3.64C75.62,37.56,76.39,35.54,76.38,33.44z
		"/>
	<path class="st2" d="M56.91,29.49c-0.23-0.7-0.81-1.22-1.53-1.36l-6.72-1.31l-3.33-5.98c-0.54-0.97-1.77-1.33-2.75-0.78
		c-0.33,0.18-0.6,0.45-0.78,0.78l-3.33,5.98l-6.72,1.31c-1.09,0.21-1.81,1.27-1.59,2.37c0.07,0.37,0.25,0.71,0.5,0.99l4.66,5.01
		l-0.83,6.79c-0.13,1.11,0.65,2.11,1.76,2.25c0.37,0.05,0.75-0.01,1.09-0.17l6.21-2.88l6.21,2.88c1.01,0.47,2.21,0.03,2.68-0.98
		c0.16-0.34,0.22-0.72,0.17-1.09L51.8,36.5l4.66-5.01C56.96,30.95,57.13,30.19,56.91,29.49z"/>
	<polyline class="st1" points="68.28,52.94 78.5,66.42 67.63,66.08 65.02,76.64 54.81,63.16 	"/>
	<polyline class="st1" points="18.72,52.94 8.5,66.42 19.37,66.08 21.98,76.64 32.19,63.16 	"/>
</g>
</svg>
