<?xml version="1.0" encoding="utf-8"?>
<!-- Generator: Adobe Illustrator 26.0.1, SVG Export Plug-In . SVG Version: 6.00 Build 0)  -->
<svg version="1.1" id="Layer_1" xmlns="http://www.w3.org/2000/svg" xmlns:xlink="http://www.w3.org/1999/xlink" x="0px" y="0px"
	 viewBox="0 0 99.72 105.49" style="enable-background:new 0 0 99.72 105.49;" xml:space="preserve">
<style type="text/css">
	.st0{fill:none;stroke:#FFFFFF;stroke-width:2;stroke-miterlimit:10;}
	.st1{fill:#FFFFFF;}
</style>
<g>
	<path class="st0" d="M82.87,30.07c-0.79-2.55-2.5-4.72-4.79-6.09c-1.47-0.88-2.56-2.27-3.07-3.91c-0.14-0.46-0.24-0.94-0.3-1.42
		c-0.07-0.73-0.22-1.45-0.43-2.15c-1.4-4.49-5.52-7.57-10.22-7.63c-2.2-0.03-4.26-1.11-5.54-2.91C55.8,2.14,50.92,0.5,46.44,1.9
		c-0.7,0.23-1.38,0.52-2.03,0.88c-1.93,1.07-4.26,1.16-6.27,0.26c-5.02-2.27-10.94-0.44-13.8,4.27l-0.02,0.03
		c-0.03,0.04-0.05,0.07-0.08,0.11c-1.15,1.85-3.1,3.05-5.26,3.27c-0.73,0.07-1.45,0.22-2.15,0.43c-4.48,1.4-7.56,5.52-7.63,10.22
		c-0.03,2.2-1.11,4.26-2.91,5.54c-3.83,2.73-5.46,7.6-4.06,12.09c0.22,0.7,0.52,1.37,0.87,2.01c0.23,0.43,0.42,0.87,0.56,1.33
		c0.51,1.63,0.41,3.4-0.3,4.96c-2.28,5.04-0.43,10.98,4.31,13.83c1.47,0.88,2.56,2.27,3.07,3.91c0.14,0.46,0.24,0.94,0.3,1.42
		c0.07,0.73,0.22,1.45,0.43,2.15c1.4,4.49,5.52,7.57,10.22,7.63c2.2,0.03,4.26,1.11,5.54,2.91c2.73,3.83,7.6,5.46,12.09,4.06
		c0.7-0.22,1.37-0.52,2.01-0.87c1.94-1.07,4.27-1.16,6.29-0.26c5.04,2.28,10.98,0.43,13.83-4.31c1.15-1.89,3.12-3.13,5.33-3.36
		c0.73-0.07,1.45-0.22,2.15-0.43c4.49-1.4,7.57-5.52,7.63-10.22c0.03-2.2,1.11-4.26,2.91-5.54c3.83-2.73,5.46-7.6,4.06-12.09
		c-0.22-0.7-0.52-1.37-0.87-2.01c-0.23-0.43-0.42-0.87-0.56-1.33c-0.51-1.63-0.41-3.4,0.3-4.96C83.5,35.38,83.67,32.62,82.87,30.07z
		"/>
	<path class="st1" d="M57.63,32.66c-0.54-0.76-1.45-1.17-2.38-1.07l-8.68,0.95l-6.33-6.03c-1.03-0.98-2.66-0.94-3.64,0.09
		c-0.33,0.35-0.56,0.78-0.66,1.25l-1.78,8.55l-7.69,4.16c-1.25,0.68-1.72,2.24-1.04,3.49c0.23,0.42,0.57,0.77,0.99,1.01L34,49.41
		L35.58,58c0.26,1.4,1.6,2.33,3,2.07c0.47-0.09,0.91-0.3,1.27-0.63l6.47-5.88l8.66,1.16c1.41,0.19,2.71-0.8,2.9-2.21
		c0.06-0.48-0.01-0.96-0.2-1.4l-3.59-7.97l3.77-7.88C58.25,34.42,58.17,33.43,57.63,32.66z"/>
	<polyline class="st0" points="80.41,56.92 97.99,69.46 84.61,73.18 85.45,87.04 67.87,74.5 	"/>
	<polyline class="st0" points="20,75.77 12.68,96.08 25.8,91.53 32.99,103.41 40.32,83.1 	"/>
</g>
</svg>
