<svg xmlns="http://www.w3.org/2000/svg" viewBox="0 0 27.53 19.61"><defs><style>.cls-1{fill:#838383;}</style></defs><g id="Layer_2" data-name="Layer 2"><g id="Layer_1-2" data-name="Layer 1"><path class="cls-1" d="M6.28,19.61C2.9,19.61,0,16.9,0,12.07A12.42,12.42,0,0,1,10.43,0V3.57c-3.38.68-5.89,3.1-5.89,5.9a4.42,4.42,0,0,1,2.61-.68c2.51,0,4.73,1.83,4.73,5.22A5.38,5.38,0,0,1,6.28,19.61Zm15.55,0c-3.29,0-6.28-2.71-6.28-7.54A12.42,12.42,0,0,1,26.08,0V3.57c-3.38.68-5.89,3.1-5.89,5.8a4.7,4.7,0,0,1,2.6-.58c2.52,0,4.74,1.83,4.74,5.22A5.46,5.46,0,0,1,21.83,19.61Z"/></g></g></svg>